<?xml version="1.0" encoding="UTF-8"?>
<!DOCTYPE svg PUBLIC "-//W3C//DTD SVG 1.1//EN" "http://www.w3.org/Graphics/SVG/1.1/DTD/svg11.dtd">
<!-- Creator: CorelDRAW 2019 (64-Bit) -->
<svg xmlns="http://www.w3.org/2000/svg" xml:space="preserve" width="3.6in" height="2in" version="1.1" style="shape-rendering:geometricPrecision; text-rendering:geometricPrecision; image-rendering:optimizeQuality; fill-rule:evenodd; clip-rule:evenodd"
viewBox="0 0 9400 2900"
 xmlns:xlink="http://www.w3.org/1999/xlink"
 xmlns:xodm="http://www.corel.com/coreldraw/odm/2003">
 <defs>
  <style type="text/css">
   <![CDATA[
    .fil0 {fill:#FCC900}
   ]]>
  </style>
 </defs>
 <g id="Layer_x0020_1">
  <metadata id="CorelCorpID_0Corel-Layer"/>
  <g id="_1545084238816">
   <path class="fil0" d="M4805.1 1445.73c12.37,-57.72 40.6,-125.5 61.49,-177.4 85.73,-212.95 200.08,-429.9 325.99,-620.74 33.73,-51.13 84.44,-127.43 127.93,-168.64 34.59,-32.78 46.06,-50.3 96.85,-79.79 97.69,-56.71 153.47,-31.22 181.74,-51.38 2.78,-23.83 -14.9,-25.66 -39.14,-23.82 -69.49,5.26 -267.13,89.25 -326.51,117.85 -14.25,6.86 -27.71,13.58 -42.05,21.24 -19.45,10.39 -23.76,13.31 -36.3,27.14 -10.37,11.43 -124.77,219.32 -137.57,242.41 -30.24,54.58 -58.31,109.05 -89.87,163.47 -15.94,27.49 -28.84,54.87 -44.3,82.4 -15.54,27.68 -24.41,64.61 -54.19,72.67 -67.4,18.25 -651.29,38.13 -672.33,17.46 -2.78,-5.06 -2.31,-0.95 -1.97,-9.17 0.04,-1.06 2.19,-8.78 2.61,-9.91l62.12 -124.72c23.85,-46.24 46.31,-93.07 71.52,-138.64 36.47,-65.94 74.09,-139.09 115.21,-201.46 65.79,-99.81 9.54,-74.76 -156.26,-60.84 -63.08,5.3 -119.64,7.86 -183.37,8.06 -34.81,0.04 -62.53,-1.13 -47.69,37.17 50.64,13.35 192.75,-31.92 214.29,26.19 10.06,27.13 -51.83,152.98 -64.67,181.72 -24.43,54.69 -93.72,207.18 -121.56,258.58 -21.71,40.09 -59.6,5.22 -94.32,27.98 -9.87,47.55 40.3,56.1 29.2,93.1 -5.16,17.21 -127.18,220.81 -140.74,243.02l-148.63 237.99c-14.78,23.81 -43.41,54.04 -36.8,85.31 20.73,6.48 54.69,-13.72 77.48,-21.26 107.09,-35.41 89,-4.11 125.27,-78.19 55.37,-113.08 107.35,-229.56 168.36,-338.2 88.86,-158.23 48.11,-139.98 247.1,-159.72 128.06,-12.71 256.28,-18.51 386.03,-19.02 41.33,-0.13 93.36,4.11 115.46,29.74 21.38,24.79 1.61,69.35 -9.3,98.31 -24,63.72 -50.22,125.69 -75.42,187.95 -35.83,88.56 -4.03,31.16 -151.35,111.83 -93.26,51.07 -124.03,84.37 -189.7,140.33 -27.81,23.69 -42.63,40.14 -66.41,67.07l-89.17 107.45c-88.34,113.16 -183.11,295.49 -199.59,456.2 -18.87,183.96 48.35,291 180.79,344.37 126.42,50.94 328.52,39.34 461.55,5.34 169.09,-43.21 279.61,-109.86 391.26,-201.99 22.08,-18.22 79.66,-80.28 96.96,-99.61 39.36,-43.98 98.33,-119.07 68.58,-178.37 -18.66,-0.59 -20.03,6.56 -29.84,20.44 -102.09,144.53 -230.05,269.61 -386.37,360.3 -150,87.02 -483.59,164.31 -613.84,18.94 -66.78,-74.53 -44.22,-226.87 -14.81,-327.74 63.09,-216.43 256.17,-509.9 438.46,-654.71 14.45,-11.48 39.21,-31.91 55.26,-39.75 -4.49,58.64 -16.74,114.56 27.52,148.98 34.21,26.6 117.22,14.49 163.06,6.82 2.43,-0.41 311.98,-60.33 256.03,-106.57 -14.94,-10.85 -34.51,7.62 -47.56,14.78 -12.01,6.6 -30.7,15.85 -45.5,21.21 -35.68,12.94 -77.76,21.3 -119.58,17.62 -134.92,-11.86 -80.75,-170.1 -80.73,-170.13 6.21,-8.42 8.68,-4.7 9.72,-5.07 14.28,-5.09 60.2,-8.3 74.44,-8.46 125.14,-1.41 274.58,25.72 314.13,162.51 29.33,101.47 -21.44,147.04 -1.67,165.06 26.89,12.97 39.57,-38.55 48.9,-59.63 56.61,-127.88 118.94,-167.44 32.81,-215.54 -102.4,-57.18 -221.9,-84.46 -357.53,-86.07l-111.54 7.54z"/>
   <path class="fil0" d="M6727.92 1234.2c-3.33,-54.41 97.44,-252.14 206.58,-262.67 -10.41,24.56 -29.81,52.96 -43.79,77.6 -23.68,41.73 -120.84,191.76 -162.79,185.06zm-339.85 -137.17c5.6,-20.04 21.12,-48.54 30.09,-70.55 14.51,-35.61 -7.51,-55.59 -40.69,-37.34 -17.19,9.45 -47.5,33.72 -59.07,44.35l-54.83 48.63c9.66,-26.28 85.93,-138.79 12.17,-130.18 -20.63,27.48 -163.97,279.34 -165.29,287 -3.55,20.52 -1.49,41.86 19.59,45.5 13.84,-1.13 70.68,-98.52 96.56,-129.47 24.43,-29.22 83.74,-94.09 121.32,-110.2 -2.93,50.8 -46.94,119.56 -72.73,162.15 -13.22,21.84 -8.78,41.13 11.52,52.31 19.44,4.83 39.11,-36.89 51.71,-59.03 30.36,-53.31 118.81,-160.65 170.86,-167.62 2.39,23.99 -41.61,104.19 -53.42,128.44 -16.52,33.93 -56.9,94.2 -24.33,135.89 47.47,60.76 168.85,-24.84 213.42,-70.19 7.85,-7.98 15.13,-13.93 23.46,-20.38 -14.91,68.7 29.12,77.73 79.15,49.61 25,-14.06 69.22,-57.03 87.95,-79.87 -3.43,32.77 -11.87,60.7 5.65,91.17 32,55.68 120.71,6.91 156.77,-20.91l62.14 -51.16c-7.98,15.53 -25.02,35.8 -30.22,49.72 -8.51,22.82 2.09,49.4 16.85,59.18 15.26,3.13 47.91,-57.71 59.33,-76.37 68.94,-112.67 26.77,-65.94 117.46,-155.83 11.28,-11.18 62.45,-51.74 78.54,-58.8 -0.66,27.26 -68.28,144.89 -83.22,170.78 -41.76,72.35 -44.72,158.71 71.41,121.43 119.36,-38.32 287.25,-215.19 268.5,-235.22 -3.94,-4.06 6.41,-4.74 -7.79,-3.22 -8.62,0.93 -15.5,15.84 -21.31,24.49 -21,31.23 -59.02,70.63 -86.15,97.09 -18.23,17.79 -115.35,93.48 -159.68,83.43 -71.48,-16.2 74.12,-239.89 103.03,-283.33 10.4,-15.62 19.09,-24.98 10.34,-47.2 -30.36,-11.11 -76.82,29.67 -109.82,54.41l-94.03 75.19c8.68,-28.77 30.62,-67.15 41.67,-94.02 1.09,-2.65 1.84,-4.64 2.76,-7.59l1.57 -5.98c0.22,-0.82 0.56,-2.08 0.77,-3.14 -39.41,-29.68 -34.72,-24.74 -65.08,33.28 -15.94,30.46 -32.07,58.56 -46.81,89.6 -9.5,20 -13.48,24.96 -26.01,40.77 -31.91,40.26 -60.07,70.95 -105.43,101.23 -214.7,143.33 -58.72,-147.72 -20.7,-227.23l14 -24.67c17.53,0.22 39.05,6.01 49.52,-1.08 -5.62,-13.75 -23.06,-12.83 -38.84,-20.37l19.26 -39.12c-17.46,-0.51 -27.3,0.92 -40.99,7.98 -22.13,11.41 -16.18,14.92 -27.81,25.37 -7.07,6.35 -42.56,8 -80.08,23.47 -66.66,27.49 -131.98,88.29 -163.61,146.45 -15.25,28.04 -20.04,43.46 -39.31,64 -28.31,30.18 -72.95,67.53 -118.51,91.52 -151.19,79.63 -8.96,-170.39 16.52,-223.42 8.37,-17.41 35.84,-58.74 8.88,-71.41 -32.09,-15.08 -79,27.27 -103.7,46.43 -9.54,7.39 -21.63,16.48 -29.84,23.63 -15.61,13.6 -44.08,37.44 -53.46,50.36z"/>
   <path class="fil0" d="M7851.79 2191.99c7.23,-19.34 29.5,-53.56 40.5,-71.33 14.21,-22.95 26.96,-43.62 41.37,-65.36 13.51,-20.37 29.56,-46.02 43.65,-62.99 37.68,-45.37 59.43,-17.61 55.46,-50.11 -21.48,-6.98 -71.96,17.44 -90.07,28.84 -23.02,14.48 -39.02,41.55 -55.52,67.83 -17.67,28.15 -83.54,130.1 -92.32,153.11 -26.11,0 -99.07,-8.52 -101.35,20.17 -2.35,29.55 46.8,15.16 80.35,13.37 -6.04,16.67 -20.28,40.28 -29.26,57.52 -5.19,9.94 -9.44,19.54 -14.52,28.8 -5.28,9.65 -12.17,16.88 -18.6,24.75l-64.8 65.05c-37.61,31.56 -222.65,184.14 -222.75,26.8 -0.03,-39.69 8.07,-63.48 24.41,-91.74 10.11,-17.5 8.1,-32.98 38.62,-74.73 13.82,-18.9 36.2,-45.49 67.29,-48.76 64.06,-6.74 48.52,45.27 51.42,59.39 14.06,1.46 65.74,-30.91 52.92,-62.3 -13.07,-32 -38.35,-53.9 -83.04,-36.41 -116.47,45.57 -174.83,129.97 -216.57,236.83 -8.91,22.8 -76.36,76.94 -99.95,93.32 -19.4,13.46 -100.08,62.88 -102.81,4.61 -4.76,-101.81 75.27,-168.29 110.6,-226.77 17.29,-28.61 12.69,-74.14 -20.1,-80.39 -25,14.15 -77.6,128.21 -97.85,162.53 -17.04,28.88 -33.46,51.86 -53.76,76.09 -10.56,12.61 -44.61,60.43 -72.17,41.68 -13.23,-32.58 42.37,-120.86 56.74,-147 13.08,-23.8 71.31,-117.03 70.78,-139.66 -15.3,-26.86 -43.41,-19.64 -58.11,2.28 -30.26,45.11 -75.5,130.41 -96.63,180.1 -14.54,34.17 -51.35,115.83 -2.92,134.92 51.21,20.19 102.94,-40.31 120.63,-56.6 -3.24,33.98 -11.87,71.71 13.13,92.76 22.2,18.68 63.98,11.06 91.4,1.2 46.1,-16.57 107.81,-64.22 127.16,-92.89 7.07,6.8 1.44,-0.46 5.59,7.59 0.9,1.74 2.09,5.83 2.65,7.93 1.61,6.12 0.51,5.9 2.85,12.96 24.37,73.49 132.05,39.74 179.71,18.94 80.65,-35.2 117.81,-88.41 163.82,-125.57 -7.26,35.07 -25.98,63.08 -11.16,104.43 24.63,68.71 128.22,37.02 178.81,12.78 14.98,-7.18 27.99,-13.69 41.35,-22.07 14.07,-8.83 32.76,-12.46 26.11,-30.36 -16.31,-4.09 -34.32,11.92 -50.12,19.56 -50.61,24.48 -136.07,55.31 -129.76,-34.1 3.05,-43.27 59.52,-176.69 81.74,-203.78 26.51,-3.94 182.03,-5.61 190.26,-13.84 27.04,-27.06 -58.38,-19.33 -73.59,-19.33 -33.86,0 -67.73,-0.02 -101.59,0z"/>
   <path class="fil0" d="M5490.32 2205.12c0.38,54.93 10.55,53.81 -11.85,101.65 -29.48,62.93 -73.33,137.26 -128.36,178.39 -133.02,99.42 11.5,-274.16 140.22,-280.04zm-1.37 -21.57c-84.72,11.44 -133.11,55.01 -169.21,101.29 -34.61,44.37 -87.63,113.27 -81.4,193.8 3.67,47.42 32.11,66.81 80.92,48.98 37.32,-13.63 59.19,-34.28 80.6,-56.05 62.4,-63.46 66.2,-87.44 111.76,-161.57 27.98,42.17 84.62,56.72 135.8,39.19 19.75,-6.76 29.5,-15.67 46.04,-22.93 -12.51,42.5 -86.03,131.83 -93.31,155.71 -6.6,21.65 2.71,48.48 19.89,56.25 25.59,-11.57 89.25,-130.8 107.86,-161.93 17.93,-29.99 109.49,-113.52 146.49,-128.94 -16.33,70.17 -95.47,169.6 -108.72,229.74 -14.16,64.28 28.71,80.35 85.08,65.29 55.87,-14.93 83.73,-43.31 112.62,-56.29 9.46,14.5 6.72,37.15 52.8,59.67 30.83,15.07 56.31,19.94 93.35,12.06 57.87,-12.31 110.71,-55 131.91,-97.98 29.47,-59.74 27.48,-126.59 31.47,-198.1 1.83,-32.89 7,-73.95 37.28,-77.43 5.13,-0.59 77.86,22.17 58.23,-40.8 -72.09,-21.02 -147.81,78.63 -154.49,115.55 -14.51,80.08 0.8,175.31 -43.15,236.8 -39.63,55.43 -115.35,52.54 -139.69,14.78 -42.13,-65.37 -4.24,-71.87 12.26,-92.25 8.37,-10.34 6.26,-7.01 17.05,-16.21 7.21,-6.15 11.53,-12.1 17.32,-19.39 8.71,-10.95 49.94,-56.24 53.54,-66.92 5.15,-15.28 0.76,-10.09 -2.28,-13.65 -12.62,-8.07 -19.62,10.91 -28.35,23.5 -23.14,33.33 -59.33,74.43 -88.6,98.09 -21.45,17.33 -113.31,96.07 -158.78,81.36 -65.25,-21.11 77.19,-243.43 107.09,-286.53 13.52,-19.48 16.48,-22.66 7.59,-44.3 -28,-7.7 -40.15,7.56 -58.72,19.85 -18.2,12.05 -35.02,23.75 -51.02,35.76l-94.09 75.48c5.24,-19.5 23.28,-54.45 32.31,-74.08 4.17,-9.06 14.37,-26.19 13.43,-33.23 -1.68,-12.53 -15.87,-21.93 -33.11,-19.7 -10.17,4.24 -41.81,69.35 -51.62,88.29 -25.56,49.31 -113.59,92.41 -154.97,48.31 -32.68,-34.83 -24.52,-102.91 -9.13,-148.97 14.07,-42.13 17.57,-43.48 -26.06,-32.91 -40.65,9.85 -30.93,17.39 -45.99,50.43z"/>
   <path class="fil0" d="M8489.8 2205.33c0.21,54.41 10.84,57.43 -12.62,103.62 -15.1,29.72 -27.63,52.92 -44.14,79.08 -16,25.35 -97.32,138.72 -129.59,110.49 -36.91,-32.28 81.54,-291.21 186.35,-293.19zm-1.18 -21.86c-95.97,12.98 -141.54,64.29 -182.3,117.94 -11.68,15.37 -19.9,27.81 -29.58,43.72 -12.89,21.18 -13.59,30.91 -30.39,46.26 -24.15,22.07 -52.78,46.49 -84.34,65.67 -23.06,14.02 -73.34,46.83 -109.96,35.91 -58.81,-17.54 57.95,-219.77 80.15,-255.76 10.06,-16.32 24.59,-31.12 19.37,-53.53 -51.64,-11.65 -84.26,61.63 -113.57,109.41 -19.64,32 -65.54,116.07 -72.95,157.28 -15.16,84.31 78.24,82.79 139.35,59.08 64.28,-24.94 94.5,-61.35 139.54,-92.62 -5.8,42.59 -15.88,103.33 26.69,114.93 69.29,18.88 146.91,-74.78 181.84,-124.32l59.1 -97.43c35.54,38.34 70.78,61.22 138.19,38.14 19.59,-6.7 29.89,-16.82 44.16,-22.39 -9.67,35.59 -86.4,133.21 -94.18,155.93 -7.45,21.76 4.03,50.5 20.33,56.51 15.97,-0.31 95.87,-141.87 107.37,-162.46 14.76,-26.43 112.61,-115.13 146.42,-128.6 -9.33,48.22 -64.2,131.56 -85.37,173.14 -92.96,182.55 94.26,173.25 293.35,-43.49 7.44,-8.1 47.65,-53.53 49.61,-63.66 3.07,-15.83 -0.28,-7.5 -2.83,-10.2 -12.27,-11.69 -30.09,26.1 -55.77,58.33 -36.45,45.76 -166.79,164.12 -222.18,143.32 -47.41,-17.81 25.67,-145.62 39.97,-172.33 24.5,-45.79 44.43,-75.09 70.93,-115.65 5.53,-8.46 14.18,-20.89 9.56,-32.52 -11.69,-29.43 -49.98,1.2 -64.3,11.1 -17.06,11.79 -31.77,22.1 -48.61,34.74l-94.54 75.44c6,-18.37 15.3,-36.28 22.92,-53.78 3.45,-7.93 25.96,-48.15 23.11,-56.45 -8.02,-9.25 -14.44,-18.69 -32.97,-16.96 -30.05,10.35 -40.42,145.71 -153.22,154.18 -87.69,6.59 -83.18,-101.66 -69.59,-146.77 5.98,-19.87 18.47,-39.69 13.66,-57.63 -10.41,-1.74 -42.38,4.84 -53.87,10.9 -16.49,8.69 -17.43,25.88 -25.08,44.65z"/>
   <path class="fil0" d="M5166.98 1235.47c-2.49,-46.12 51.87,-136.23 72.02,-164.76 30.78,-43.57 77.38,-94.3 134.56,-99.13 -7.61,21.47 -72.9,125.41 -88.42,148.69 -17.85,26.79 -85.58,114.09 -118.16,115.2zm108.2 -59.28c-26.57,133.98 58.8,144.08 158.48,72.59l63.44 -51.33c-6.52,17.38 -59.31,91.34 -7.06,92.95 10.92,-2.26 60.14,-82.52 66.55,-92.02 22.43,-33.28 42.46,-64.37 66.23,-97.12 25.22,-34.76 42.87,-56.04 78.27,-81.81 15.55,-11.32 35.04,-21.27 58.92,-20.65 61.45,1.58 35.67,64.83 77.2,0.09 6.45,-10.05 19.57,-24.84 18.28,-36.31 -3.7,-32.81 -57.81,-19.68 -79.09,-11.09 -23.56,9.52 -50.81,27.32 -69.34,40.65 -14.94,10.76 -52.37,39.13 -58.72,47.94 8.09,-17.61 19.15,-33.23 28,-51.95 13.03,-27.57 -1.8,-54.77 -30.44,-44.27 -11.88,5.63 -88.03,149.2 -96.48,164.02 -27.83,48.8 -82.57,99.03 -131.37,128.56 -106.08,64.17 -108.83,8.88 -72.94,-86.32 10.63,-28.19 68.89,-155.61 82.74,-177.14 18.45,0.65 40.96,7.11 50.78,-2.37 -7.21,-10.91 -24.64,-12.46 -38.61,-18.82l18.7 -38.65c-54.61,-6.21 -53.91,33.11 -82.08,38.15 -93.72,16.75 -171.82,71.47 -221.07,149.28 -16.95,26.78 -88.51,153.88 -26.6,168.98 54.23,13.23 125.02,-72.09 146.23,-93.35z"/>
   <path class="fil0" d="M5960.26 958.06c-25.81,0.03 -124.81,-8.58 -96.88,34.19 17.35,8.01 55.43,0.15 76.68,-0.42 -15.68,45.27 -119.39,191.36 -82.07,265.25 30.5,60.39 141.68,25.47 195.75,-4.98 10.67,-6.01 19.46,-11.07 29.52,-17.09 12.88,-7.71 22.6,-9.3 18.32,-24.77 -24.69,-8.56 -189.32,117.52 -180.64,-14.83 3.05,-46.42 71.84,-200.22 83.7,-204.97l189.21 -10.17c8.77,-30.2 -10.94,-22.21 -73.81,-22.21 -31.59,0 -71.63,2.14 -102.19,-0.78 22.25,-44.89 91.86,-155.51 124.05,-197 34.42,-44.37 59.57,-20.43 57.24,-51.17 -20.3,-9.36 -71.01,15.65 -88.52,26.6 -27.08,16.93 -38.3,38.98 -56.06,67.23 -30.12,47.94 -69.52,104.12 -94.31,155.1z"/>
   <path class="fil0" d="M6518.87 2192c14.9,-37.21 98.47,-162.61 125.29,-199.5 31.75,-43.68 59.57,-16.18 55.71,-50.74 -22.88,-5.91 -71.45,17.56 -90.22,29.56 -45.7,29.22 -139.57,217.16 -152.94,220.68 -24.93,0 -115.45,-8.94 -93.33,33.28 18.03,10.67 55.41,1.11 77.46,0.3 -15.28,46.5 -119.13,191.95 -82.46,264.56 32.02,63.41 142.13,25.35 197.9,-5.36 28.41,-15.64 51.22,-23.01 45.71,-41.58 -16.6,-2.72 -34.54,12.45 -50.32,20.07 -257.45,124.33 -51.75,-235.63 -48.28,-237.81 29.93,-5.31 71.83,-5.82 103.33,-7.27 56.62,-2.62 90.26,6.31 89.79,-19.74 -16.9,-14.54 -62.84,-6.45 -86.46,-6.45 -30.39,0 -60.79,-0.01 -91.18,0.01z"/>
   <path class="fil0" d="M6943.38 2261.31c6.43,-2.41 79.78,-79.52 13.05,-85.73 -17.57,-1.64 -33.01,2.91 -47.2,8.69 -62.91,25.64 -94.15,63.23 -129.22,86.94 7.23,-18.26 22.74,-36.6 28.75,-54.3 11.21,-33.02 -19.1,-51.85 -36.85,-36.76l-123.63 216.56c-12.16,22.21 -59.57,89.85 -48.96,115.77 3.71,9.07 13.46,15.85 24.62,10.17 7.31,-3.72 112.65,-166.02 121.84,-178.52 134.69,-183.3 182.98,-87.77 197.61,-82.81z"/>
   <path class="fil0" d="M8188.62 2026.31c28.97,9 42.38,-0.61 57.95,-17.97 10.06,-11.22 25.44,-40.01 9.1,-55.35 -26.07,-24.47 -86.87,23.44 -67.05,73.32z"/>
  </g>
 </g>
</svg>
